<svg width="32" height="32" viewBox="0 0 32 32" fill="none" xmlns="http://www.w3.org/2000/svg">
  <!-- Background circle -->
  <rect width="32" height="32" rx="8" fill="#D8CCFF"/>

  <!-- Wings -->
  <ellipse cx="10" cy="13" rx="4.5" ry="3" fill="white" fill-opacity="0.7" transform="rotate(-20 10 13)"/>
  <ellipse cx="22" cy="13" rx="4.5" ry="3" fill="white" fill-opacity="0.7" transform="rotate(20 22 13)"/>

  <!-- Body -->
  <ellipse cx="16" cy="18" rx="8" ry="7" fill="#FBBF24" stroke="#141418" stroke-width="1.5"/>

  <!-- Stripes -->
  <path d="M10.5 15.5 Q16 14.5 21.5 15.5" stroke="#141418" stroke-width="1.8" stroke-linecap="round" fill="none"/>
  <path d="M10 18.5 Q16 17.5 22 18.5" stroke="#141418" stroke-width="1.8" stroke-linecap="round" fill="none"/>
  <path d="M10.5 21.5 Q16 20.5 21.5 21.5" stroke="#141418" stroke-width="1.8" stroke-linecap="round" fill="none"/>

  <!-- Face area -->
  <ellipse cx="16" cy="14.5" rx="5.5" ry="4.5" fill="#FBBF24"/>

  <!-- Eyes -->
  <ellipse cx="13.8" cy="14" rx="2.2" ry="2.5" fill="white" stroke="#141418" stroke-width="1.2"/>
  <ellipse cx="18.2" cy="14" rx="2.2" ry="2.5" fill="white" stroke="#141418" stroke-width="1.2"/>

  <!-- Pupils -->
  <circle cx="14.3" cy="14.5" r="1.3" fill="#141418"/>
  <circle cx="14.8" cy="13.8" r="0.4" fill="white"/>
  <circle cx="18.7" cy="14.5" r="1.3" fill="#141418"/>
  <circle cx="19.2" cy="13.8" r="0.4" fill="white"/>

  <!-- Mouth -->
  <path d="M14.5 17 Q16 18.5 17.5 17" stroke="#141418" stroke-width="1" stroke-linecap="round" fill="none"/>

  <!-- Cheek blush -->
  <ellipse cx="12" cy="16.2" rx="1.2" ry="0.7" fill="#FF9F6C" fill-opacity="0.5"/>
  <ellipse cx="20" cy="16.2" rx="1.2" ry="0.7" fill="#FF9F6C" fill-opacity="0.5"/>

  <!-- Antennae -->
  <path d="M13.5 10 Q12.5 6 10.5 5" stroke="#141418" stroke-width="1.2" stroke-linecap="round" fill="none"/>
  <path d="M18.5 10 Q19.5 6 21.5 5" stroke="#141418" stroke-width="1.2" stroke-linecap="round" fill="none"/>
  <circle cx="10.5" cy="5" r="1.3" fill="#FFB088" stroke="#141418" stroke-width="0.8"/>
  <circle cx="21.5" cy="5" r="1.3" fill="#FFB088" stroke="#141418" stroke-width="0.8"/>

  <!-- Stinger -->
  <path d="M16 25 L15 27 L17 27 Z" fill="#141418"/>
</svg>
